<svg width="40" height="40" viewBox="0 0 225 225" fill="none" xmlns="http://www.w3.org/2000/svg">
<circle cx="112.5" cy="112.5" r="110.5" fill="gold" stroke="black" stroke-width='2' />
<line x1="56.0819" y1="186.604" x2="75.0819" y2="142.604" stroke="#1B0982" stroke-width="2"/>
<path d="M35.5 186.202L114.5 4.20212" stroke="#1B0982" stroke-width="2" />
<line x1="176.087" y1="143.407" x2="114.087" y2="4.40743" stroke="#1B0982" stroke-width="2"/>
<line x1="82.0821" y1="124.603" x2="114.082" y2="50.6031" stroke="#1B0982" stroke-width="2"/>
<line x1="148.091" y1="124.417" x2="114.091" y2="50.4175" stroke="#1B0982" stroke-width="2"/>
<line x1="83" y1="124" x2="149" y2="124" stroke="#1B0982" stroke-width="2"/>
<line x1="74" y1="143" x2="177" y2="143" stroke="#1B0982" stroke-width="2"/>
<line x1="35" y1="186" x2="57" y2="186" stroke="#1B0982" stroke-width="2"/>
<path d="M79.44 177.448C78.352 177.448 77.3707 177.395 76.496 177.288C75.6213 177.181 74.8107 177.021 74.064 176.808C73.3173 176.595 72.592 176.317 71.888 175.976V171.048C72.8693 171.837 73.9787 172.435 75.216 172.84C76.4533 173.245 77.6267 173.448 78.736 173.448C79.7173 173.448 80.464 173.267 80.976 172.904C81.5093 172.52 81.776 171.944 81.776 171.176C81.776 170.6 81.5307 170.141 81.04 169.8C80.5707 169.437 79.9413 169.128 79.152 168.872C78.3627 168.595 77.4773 168.285 76.496 167.944C75.8773 167.752 75.2693 167.507 74.672 167.208C74.0747 166.909 73.5413 166.536 73.072 166.088C72.6027 165.619 72.2293 165.053 71.952 164.392C71.6747 163.731 71.536 162.92 71.536 161.96C71.536 161.085 71.696 160.243 72.016 159.432C72.336 158.621 72.8267 157.896 73.488 157.256C74.1707 156.616 75.0347 156.115 76.08 155.752C77.1253 155.368 78.352 155.176 79.76 155.176C80.6347 155.176 81.4027 155.229 82.064 155.336C82.7467 155.443 83.3973 155.603 84.016 155.816C84.6347 156.008 85.264 156.264 85.904 156.584V161.576C85.4133 161.171 84.8587 160.797 84.24 160.456C83.6427 160.093 83.0133 159.795 82.352 159.56C81.6907 159.325 80.9973 159.197 80.272 159.176C79.632 159.155 79.0453 159.219 78.512 159.368C77.9787 159.517 77.5627 159.763 77.264 160.104C76.9653 160.424 76.816 160.84 76.816 161.352C76.816 161.949 76.9973 162.419 77.36 162.76C77.7227 163.101 78.224 163.389 78.864 163.624C79.504 163.837 80.2187 164.072 81.008 164.328C81.8827 164.584 82.6827 164.872 83.408 165.192C84.1547 165.491 84.8053 165.875 85.36 166.344C85.9147 166.813 86.3413 167.389 86.64 168.072C86.9387 168.755 87.088 169.576 87.088 170.536C87.088 171.816 86.7893 172.989 86.192 174.056C85.5947 175.101 84.7307 175.933 83.6 176.552C82.4693 177.149 81.0827 177.448 79.44 177.448ZM100.245 177.448C98.1328 177.448 96.2981 177.053 94.7408 176.264C93.1834 175.453 91.9674 174.227 91.0928 172.584C90.2394 170.941 89.8128 168.861 89.8128 166.344C89.8128 162.696 90.7301 159.933 92.5648 158.056C94.3994 156.179 96.9594 155.24 100.245 155.24C102.357 155.24 104.191 155.645 105.749 156.456C107.327 157.245 108.543 158.451 109.397 160.072C110.25 161.693 110.677 163.773 110.677 166.312C110.677 169.981 109.759 172.755 107.925 174.632C106.111 176.509 103.551 177.448 100.245 177.448ZM100.245 173.192C101.333 173.192 102.25 172.968 102.997 172.52C103.765 172.072 104.341 171.347 104.725 170.344C105.13 169.32 105.333 167.976 105.333 166.312C105.333 164.627 105.13 163.283 104.725 162.28C104.341 161.277 103.765 160.563 102.997 160.136C102.25 159.688 101.333 159.464 100.245 159.464C99.1568 159.464 98.2394 159.688 97.4928 160.136C96.7461 160.584 96.1701 161.309 95.7648 162.312C95.3808 163.315 95.1888 164.669 95.1888 166.376C95.1888 168.061 95.3808 169.405 95.7648 170.408C96.1701 171.389 96.7461 172.104 97.4928 172.552C98.2394 172.979 99.1568 173.192 100.245 173.192ZM123.775 177.416C120.361 177.416 117.748 176.52 115.935 174.728C114.143 172.915 113.247 170.12 113.247 166.344C113.247 162.675 114.111 159.901 115.839 158.024C117.567 156.125 120.212 155.176 123.775 155.176C124.905 155.176 126.047 155.315 127.199 155.592C128.351 155.869 129.471 156.253 130.559 156.744V161.256C129.449 160.531 128.383 160.008 127.359 159.688C126.335 159.368 125.375 159.208 124.479 159.208C123.22 159.208 122.153 159.432 121.279 159.88C120.425 160.328 119.764 161.075 119.295 162.12C118.847 163.165 118.623 164.573 118.623 166.344C118.623 168.115 118.847 169.512 119.295 170.536C119.764 171.56 120.447 172.296 121.343 172.744C122.26 173.171 123.38 173.384 124.703 173.384C125.492 173.384 126.388 173.235 127.391 172.936C128.393 172.637 129.449 172.125 130.559 171.4V175.912C129.961 176.211 129.279 176.477 128.51 176.712C127.764 176.925 126.975 177.096 126.143 177.224C125.332 177.352 124.543 177.416 123.775 177.416ZM132.635 177L140.699 155.656H146.363L153.915 177H148.603L141.787 156.872L144.315 156.648L137.531 177H132.635ZM137.179 172.392L138.235 168.584H147.931L148.411 172.392H137.179ZM156.616 177V155.656H161.8V177H156.616ZM166.335 177V155.656H171.519V172.936H180.799V177H166.335Z" fill="url(#paint0_linear_1_29)"/>
<defs>
<linearGradient id="paint0_linear_1_29" x1="127" y1="146" x2="127" y2="184" gradientUnits="userSpaceOnUse">
<stop stop-color="#4726FF"/>
<stop offset="0.495" stop-color="#9D93D2"/>
<stop offset="1" stop-color="#1B0982"/>
</linearGradient>
</defs>
</svg>
